<mxfile host="app.diagrams.net" modified="2022-06-22T08:01:50.954Z" agent="5.0 (Windows NT 10.0; Win64; x64) AppleWebKit/537.36 (KHTML, like Gecko) Chrome/101.0.4951.54 Safari/537.36" etag="GU7__wQ6zvIzpScpdQtG" version="20.0.2" type="github">
  <diagram id="42lXZDUCctdOGcEEQoCW" name="Page-1">
    <mxGraphModel dx="782" dy="1651" grid="1" gridSize="10" guides="1" tooltips="1" connect="1" arrows="1" fold="1" page="1" pageScale="1" pageWidth="827" pageHeight="1169" math="0" shadow="0">
      <root>
        <mxCell id="0" />
        <mxCell id="1" parent="0" />
        <mxCell id="rdkuFRtV2GZSyEBgy8UD-13" value="" style="endArrow=none;html=1;rounded=0;entryX=1;entryY=0.5;entryDx=0;entryDy=0;" parent="1" target="rdkuFRtV2GZSyEBgy8UD-6" edge="1">
          <mxGeometry width="50" height="50" relative="1" as="geometry">
            <mxPoint x="480" y="850" as="sourcePoint" />
            <mxPoint x="530" y="860" as="targetPoint" />
            <Array as="points">
              <mxPoint x="510" y="850" />
              <mxPoint x="510" y="950" />
            </Array>
          </mxGeometry>
        </mxCell>
        <mxCell id="npiH17Rg71jsKBBElnRh-3" value="" style="edgeStyle=orthogonalEdgeStyle;rounded=0;orthogonalLoop=1;jettySize=auto;html=1;" parent="1" source="npiH17Rg71jsKBBElnRh-1" target="npiH17Rg71jsKBBElnRh-2" edge="1">
          <mxGeometry relative="1" as="geometry">
            <Array as="points">
              <mxPoint x="290" y="40" />
              <mxPoint x="290" y="-80" />
            </Array>
          </mxGeometry>
        </mxCell>
        <mxCell id="npiH17Rg71jsKBBElnRh-5" value="" style="edgeStyle=orthogonalEdgeStyle;rounded=0;orthogonalLoop=1;jettySize=auto;html=1;" parent="1" source="npiH17Rg71jsKBBElnRh-1" target="npiH17Rg71jsKBBElnRh-4" edge="1">
          <mxGeometry relative="1" as="geometry">
            <Array as="points">
              <mxPoint x="290" y="40" />
              <mxPoint x="290" y="210" />
            </Array>
          </mxGeometry>
        </mxCell>
        <mxCell id="npiH17Rg71jsKBBElnRh-1" value="&lt;font style=&quot;font-size: 17px&quot;&gt;MMU触发&lt;br&gt;page fault&lt;br&gt;&lt;/font&gt;" style="rounded=1;whiteSpace=wrap;html=1;" parent="1" vertex="1">
          <mxGeometry x="140" y="10" width="120" height="60" as="geometry" />
        </mxCell>
        <mxCell id="npiH17Rg71jsKBBElnRh-7" value="" style="edgeStyle=orthogonalEdgeStyle;rounded=0;orthogonalLoop=1;jettySize=auto;html=1;" parent="1" source="npiH17Rg71jsKBBElnRh-2" target="npiH17Rg71jsKBBElnRh-6" edge="1">
          <mxGeometry relative="1" as="geometry">
            <Array as="points">
              <mxPoint x="480" y="-80" />
              <mxPoint x="480" y="-200" />
            </Array>
          </mxGeometry>
        </mxCell>
        <mxCell id="npiH17Rg71jsKBBElnRh-9" value="" style="edgeStyle=orthogonalEdgeStyle;rounded=0;orthogonalLoop=1;jettySize=auto;html=1;" parent="1" source="npiH17Rg71jsKBBElnRh-2" target="npiH17Rg71jsKBBElnRh-8" edge="1">
          <mxGeometry relative="1" as="geometry">
            <Array as="points">
              <mxPoint x="440" y="-80" />
              <mxPoint x="440" y="-80" />
            </Array>
          </mxGeometry>
        </mxCell>
        <mxCell id="npiH17Rg71jsKBBElnRh-12" value="" style="edgeStyle=orthogonalEdgeStyle;rounded=0;orthogonalLoop=1;jettySize=auto;html=1;exitX=1;exitY=0.5;exitDx=0;exitDy=0;" parent="1" source="npiH17Rg71jsKBBElnRh-2" target="npiH17Rg71jsKBBElnRh-11" edge="1">
          <mxGeometry relative="1" as="geometry">
            <mxPoint x="470" y="-20" as="sourcePoint" />
            <Array as="points">
              <mxPoint x="480" y="-80" />
              <mxPoint x="480" y="-10" />
            </Array>
          </mxGeometry>
        </mxCell>
        <mxCell id="npiH17Rg71jsKBBElnRh-2" value="&lt;font&gt;&lt;span style=&quot;font-size: 17px&quot;&gt;缺页异常&lt;/span&gt;&lt;br&gt;&lt;font style=&quot;font-size: 13px&quot;&gt;（页不在内存）&lt;/font&gt;&lt;br&gt;&lt;/font&gt;" style="rounded=1;whiteSpace=wrap;html=1;" parent="1" vertex="1">
          <mxGeometry x="320" y="-110" width="120" height="60" as="geometry" />
        </mxCell>
        <mxCell id="npiH17Rg71jsKBBElnRh-14" value="" style="edgeStyle=orthogonalEdgeStyle;rounded=0;orthogonalLoop=1;jettySize=auto;html=1;" parent="1" source="npiH17Rg71jsKBBElnRh-4" target="npiH17Rg71jsKBBElnRh-13" edge="1">
          <mxGeometry relative="1" as="geometry">
            <Array as="points">
              <mxPoint x="480" y="210" />
              <mxPoint x="480" y="170" />
            </Array>
          </mxGeometry>
        </mxCell>
        <mxCell id="npiH17Rg71jsKBBElnRh-16" value="" style="edgeStyle=orthogonalEdgeStyle;rounded=0;orthogonalLoop=1;jettySize=auto;html=1;" parent="1" source="npiH17Rg71jsKBBElnRh-4" target="npiH17Rg71jsKBBElnRh-15" edge="1">
          <mxGeometry relative="1" as="geometry">
            <Array as="points">
              <mxPoint x="480" y="210" />
              <mxPoint x="480" y="300" />
            </Array>
          </mxGeometry>
        </mxCell>
        <mxCell id="npiH17Rg71jsKBBElnRh-4" value="&lt;font&gt;&lt;span style=&quot;font-size: 17px&quot;&gt;权限异常&lt;/span&gt;&lt;br&gt;&lt;font style=&quot;font-size: 11px&quot;&gt;（页在内存，但权限不对）&lt;/font&gt;&lt;br&gt;&lt;/font&gt;" style="rounded=1;whiteSpace=wrap;html=1;" parent="1" vertex="1">
          <mxGeometry x="320" y="180" width="120" height="60" as="geometry" />
        </mxCell>
        <mxCell id="npiH17Rg71jsKBBElnRh-19" value="" style="edgeStyle=orthogonalEdgeStyle;rounded=0;orthogonalLoop=1;jettySize=auto;html=1;fontSize=17;" parent="1" source="npiH17Rg71jsKBBElnRh-6" target="npiH17Rg71jsKBBElnRh-18" edge="1">
          <mxGeometry relative="1" as="geometry">
            <Array as="points">
              <mxPoint x="670" y="-200" />
              <mxPoint x="670" y="-240" />
            </Array>
          </mxGeometry>
        </mxCell>
        <mxCell id="npiH17Rg71jsKBBElnRh-26" value="" style="edgeStyle=orthogonalEdgeStyle;rounded=0;orthogonalLoop=1;jettySize=auto;html=1;fontSize=11;" parent="1" source="npiH17Rg71jsKBBElnRh-6" target="npiH17Rg71jsKBBElnRh-25" edge="1">
          <mxGeometry relative="1" as="geometry">
            <Array as="points">
              <mxPoint x="670" y="-200" />
              <mxPoint x="670" y="-160" />
            </Array>
          </mxGeometry>
        </mxCell>
        <mxCell id="npiH17Rg71jsKBBElnRh-6" value="&lt;font style=&quot;font-size: 17px&quot;&gt;匿名页缺页&lt;/font&gt;" style="rounded=1;whiteSpace=wrap;html=1;align=left;" parent="1" vertex="1">
          <mxGeometry x="525" y="-230" width="110" height="60" as="geometry" />
        </mxCell>
        <mxCell id="npiH17Rg71jsKBBElnRh-21" value="" style="edgeStyle=orthogonalEdgeStyle;rounded=0;orthogonalLoop=1;jettySize=auto;html=1;fontSize=17;" parent="1" source="npiH17Rg71jsKBBElnRh-8" target="npiH17Rg71jsKBBElnRh-20" edge="1">
          <mxGeometry relative="1" as="geometry" />
        </mxCell>
        <mxCell id="npiH17Rg71jsKBBElnRh-8" value="&lt;font style=&quot;font-size: 17px&quot;&gt;文件页缺页&lt;/font&gt;" style="rounded=1;whiteSpace=wrap;html=1;align=left;" parent="1" vertex="1">
          <mxGeometry x="520" y="-110" width="110" height="60" as="geometry" />
        </mxCell>
        <mxCell id="npiH17Rg71jsKBBElnRh-23" value="" style="edgeStyle=orthogonalEdgeStyle;rounded=0;orthogonalLoop=1;jettySize=auto;html=1;fontSize=17;" parent="1" source="npiH17Rg71jsKBBElnRh-11" target="npiH17Rg71jsKBBElnRh-22" edge="1">
          <mxGeometry relative="1" as="geometry" />
        </mxCell>
        <mxCell id="npiH17Rg71jsKBBElnRh-11" value="&lt;font style=&quot;font-size: 17px&quot;&gt;交换缺页&lt;/font&gt;" style="rounded=1;whiteSpace=wrap;html=1;align=left;" parent="1" vertex="1">
          <mxGeometry x="520" y="-30" width="110" height="60" as="geometry" />
        </mxCell>
        <mxCell id="npiH17Rg71jsKBBElnRh-28" value="" style="edgeStyle=orthogonalEdgeStyle;rounded=0;orthogonalLoop=1;jettySize=auto;html=1;fontSize=17;" parent="1" source="npiH17Rg71jsKBBElnRh-13" target="npiH17Rg71jsKBBElnRh-27" edge="1">
          <mxGeometry relative="1" as="geometry" />
        </mxCell>
        <mxCell id="npiH17Rg71jsKBBElnRh-30" value="" style="edgeStyle=orthogonalEdgeStyle;rounded=0;orthogonalLoop=1;jettySize=auto;html=1;fontSize=17;" parent="1" source="npiH17Rg71jsKBBElnRh-13" target="npiH17Rg71jsKBBElnRh-29" edge="1">
          <mxGeometry relative="1" as="geometry" />
        </mxCell>
        <mxCell id="npiH17Rg71jsKBBElnRh-13" value="&lt;font&gt;&lt;font style=&quot;font-size: 17px&quot;&gt;COW&lt;/font&gt;&lt;br&gt;&lt;span style=&quot;font-size: 13px&quot;&gt;（写权限为&lt;/span&gt;&lt;font style=&quot;font-size: 13px&quot;&gt;只读&lt;/font&gt;&lt;span style=&quot;font-size: 13px&quot;&gt;的页）&lt;/span&gt;&lt;/font&gt;" style="rounded=1;whiteSpace=wrap;html=1;align=left;" parent="1" vertex="1">
          <mxGeometry x="520" y="140" width="120" height="60" as="geometry" />
        </mxCell>
        <mxCell id="npiH17Rg71jsKBBElnRh-32" value="" style="edgeStyle=orthogonalEdgeStyle;rounded=0;orthogonalLoop=1;jettySize=auto;html=1;fontSize=17;" parent="1" source="npiH17Rg71jsKBBElnRh-15" target="npiH17Rg71jsKBBElnRh-31" edge="1">
          <mxGeometry relative="1" as="geometry" />
        </mxCell>
        <mxCell id="npiH17Rg71jsKBBElnRh-15" value="&lt;font style=&quot;font-size: 17px&quot;&gt;auto NUMA hint fault&lt;/font&gt;" style="rounded=1;whiteSpace=wrap;html=1;align=left;" parent="1" vertex="1">
          <mxGeometry x="520" y="270" width="120" height="60" as="geometry" />
        </mxCell>
        <mxCell id="npiH17Rg71jsKBBElnRh-18" value="&lt;span style=&quot;font-size: 14px&quot;&gt;malloc/mmap后，首次访问时触发，分配物理页&lt;/span&gt;" style="rounded=1;whiteSpace=wrap;html=1;align=left;" parent="1" vertex="1">
          <mxGeometry x="710" y="-270" width="330" height="60" as="geometry" />
        </mxCell>
        <mxCell id="npiH17Rg71jsKBBElnRh-20" value="&lt;span style=&quot;font-size: 17px&quot;&gt;首次访问文件页时触发，则从文件系统读入到page cache&lt;/span&gt;" style="rounded=1;whiteSpace=wrap;html=1;align=left;" parent="1" vertex="1">
          <mxGeometry x="710" y="-110" width="320" height="60" as="geometry" />
        </mxCell>
        <mxCell id="npiH17Rg71jsKBBElnRh-22" value="&lt;span style=&quot;font-size: 17px&quot;&gt;访问了被交换到了磁盘的页，则swap in&lt;/span&gt;" style="rounded=1;whiteSpace=wrap;html=1;align=left;" parent="1" vertex="1">
          <mxGeometry x="710" y="-30" width="320" height="60" as="geometry" />
        </mxCell>
        <mxCell id="npiH17Rg71jsKBBElnRh-25" value="&lt;span style=&quot;font-family: &amp;#34;helvetica neue&amp;#34; , &amp;#34;helvetica&amp;#34; , &amp;#34;verdana&amp;#34; , &amp;#34;arial&amp;#34; , sans-serif ; font-size: 14px ; background-color: rgb(255 , 255 , 255)&quot;&gt;用户栈不够的情况下，进行栈区的扩大处理&lt;/span&gt;" style="rounded=1;whiteSpace=wrap;html=1;align=left;" parent="1" vertex="1">
          <mxGeometry x="710" y="-190" width="330" height="60" as="geometry" />
        </mxCell>
        <mxCell id="npiH17Rg71jsKBBElnRh-27" value="&lt;div&gt;&lt;font face=&quot;Helvetica Neue, Helvetica, Verdana, Arial, sans-serif&quot;&gt;&lt;span style=&quot;font-size: 14px&quot;&gt;创建子进程时，父子进程会以只读方式共享私有的匿名页和文件页，当试图写的时候，触发页错误异常，从而复制物理页，并创建映射；&lt;/span&gt;&lt;br&gt;&lt;/font&gt;&lt;/div&gt;" style="rounded=1;whiteSpace=wrap;html=1;align=left;" parent="1" vertex="1">
          <mxGeometry x="710" y="110" width="320" height="60" as="geometry" />
        </mxCell>
        <mxCell id="npiH17Rg71jsKBBElnRh-29" value="进程创建私有文件映射，读访问后触发异常，将文件页读入到page cache中，并以只读模式创建映射，之后发生写访问后，触发COW；" style="rounded=1;whiteSpace=wrap;html=1;align=left;" parent="1" vertex="1">
          <mxGeometry x="707" y="180" width="323" height="60" as="geometry" />
        </mxCell>
        <mxCell id="npiH17Rg71jsKBBElnRh-31" value="定期扫描和标记页表项上prot_none bit，访问被标记的页触发" style="rounded=1;whiteSpace=wrap;html=1;align=left;" parent="1" vertex="1">
          <mxGeometry x="710" y="270" width="330" height="60" as="geometry" />
        </mxCell>
        <mxCell id="rdkuFRtV2GZSyEBgy8UD-1" value="cpu0&lt;br&gt;&amp;nbsp;" style="rounded=0;whiteSpace=wrap;html=1;" parent="1" vertex="1">
          <mxGeometry x="200" y="720" width="120" height="60" as="geometry" />
        </mxCell>
        <mxCell id="rdkuFRtV2GZSyEBgy8UD-2" value="node0&lt;br&gt;(DRAM)" style="rounded=0;whiteSpace=wrap;html=1;" parent="1" vertex="1">
          <mxGeometry x="200" y="820" width="120" height="60" as="geometry" />
        </mxCell>
        <mxCell id="rdkuFRtV2GZSyEBgy8UD-3" value="node2&lt;br&gt;(PMEM)" style="rounded=0;whiteSpace=wrap;html=1;" parent="1" vertex="1">
          <mxGeometry x="200" y="920" width="120" height="60" as="geometry" />
        </mxCell>
        <mxCell id="rdkuFRtV2GZSyEBgy8UD-4" value="cpu1&lt;br&gt;&lt;br&gt;" style="rounded=0;whiteSpace=wrap;html=1;" parent="1" vertex="1">
          <mxGeometry x="360" y="720" width="120" height="60" as="geometry" />
        </mxCell>
        <mxCell id="rdkuFRtV2GZSyEBgy8UD-5" value="node1&lt;br&gt;(DRAM)" style="rounded=0;whiteSpace=wrap;html=1;" parent="1" vertex="1">
          <mxGeometry x="360" y="820" width="120" height="60" as="geometry" />
        </mxCell>
        <mxCell id="rdkuFRtV2GZSyEBgy8UD-6" value="node3&lt;br&gt;(PMEM)" style="rounded=0;whiteSpace=wrap;html=1;" parent="1" vertex="1">
          <mxGeometry x="360" y="920" width="120" height="60" as="geometry" />
        </mxCell>
        <mxCell id="rdkuFRtV2GZSyEBgy8UD-9" value="UPI&lt;br&gt;&amp;nbsp;&amp;nbsp;" style="endArrow=none;html=1;rounded=0;exitX=1;exitY=0.5;exitDx=0;exitDy=0;entryX=0;entryY=0.5;entryDx=0;entryDy=0;" parent="1" source="rdkuFRtV2GZSyEBgy8UD-1" target="rdkuFRtV2GZSyEBgy8UD-4" edge="1">
          <mxGeometry width="50" height="50" relative="1" as="geometry">
            <mxPoint x="350" y="910" as="sourcePoint" />
            <mxPoint x="400" y="860" as="targetPoint" />
          </mxGeometry>
        </mxCell>
        <mxCell id="rdkuFRtV2GZSyEBgy8UD-11" value="" style="endArrow=none;html=1;rounded=0;entryX=0;entryY=0.5;entryDx=0;entryDy=0;exitX=0;exitY=0.5;exitDx=0;exitDy=0;" parent="1" source="rdkuFRtV2GZSyEBgy8UD-3" target="rdkuFRtV2GZSyEBgy8UD-2" edge="1">
          <mxGeometry width="50" height="50" relative="1" as="geometry">
            <mxPoint x="160" y="910" as="sourcePoint" />
            <mxPoint x="210" y="860" as="targetPoint" />
            <Array as="points">
              <mxPoint x="170" y="950" />
              <mxPoint x="170" y="850" />
            </Array>
          </mxGeometry>
        </mxCell>
        <mxCell id="rdkuFRtV2GZSyEBgy8UD-12" value="" style="endArrow=none;html=1;rounded=0;exitX=1;exitY=0.5;exitDx=0;exitDy=0;entryX=1;entryY=0.5;entryDx=0;entryDy=0;" parent="1" source="rdkuFRtV2GZSyEBgy8UD-4" target="rdkuFRtV2GZSyEBgy8UD-5" edge="1">
          <mxGeometry width="50" height="50" relative="1" as="geometry">
            <mxPoint x="470" y="800" as="sourcePoint" />
            <mxPoint x="520" y="750" as="targetPoint" />
            <Array as="points">
              <mxPoint x="510" y="750" />
              <mxPoint x="510" y="850" />
            </Array>
          </mxGeometry>
        </mxCell>
        <mxCell id="rdkuFRtV2GZSyEBgy8UD-14" value="" style="endArrow=none;html=1;rounded=0;exitX=0;exitY=0.5;exitDx=0;exitDy=0;" parent="1" source="rdkuFRtV2GZSyEBgy8UD-2" edge="1">
          <mxGeometry width="50" height="50" relative="1" as="geometry">
            <mxPoint x="190" y="860" as="sourcePoint" />
            <mxPoint x="200" y="750" as="targetPoint" />
            <Array as="points">
              <mxPoint x="170" y="850" />
              <mxPoint x="170" y="750" />
            </Array>
          </mxGeometry>
        </mxCell>
        <mxCell id="rdkuFRtV2GZSyEBgy8UD-17" value="" style="rounded=0;whiteSpace=wrap;html=1;fillColor=#00FFFF;" parent="1" vertex="1">
          <mxGeometry x="470" y="945" width="10" height="10" as="geometry" />
        </mxCell>
        <mxCell id="rdkuFRtV2GZSyEBgy8UD-19" value="" style="rounded=0;whiteSpace=wrap;html=1;fillColor=#a20025;fontColor=#ffffff;strokeColor=#6F0000;" parent="1" vertex="1">
          <mxGeometry x="470" y="935" width="10" height="10" as="geometry" />
        </mxCell>
        <mxCell id="rdkuFRtV2GZSyEBgy8UD-26" value="" style="rounded=0;whiteSpace=wrap;html=1;fillColor=#a20025;fontColor=#ffffff;strokeColor=#6F0000;" parent="1" vertex="1">
          <mxGeometry x="460" y="945" width="10" height="10" as="geometry" />
        </mxCell>
        <mxCell id="rdkuFRtV2GZSyEBgy8UD-27" value="" style="rounded=0;whiteSpace=wrap;html=1;fillColor=#a20025;fontColor=#ffffff;strokeColor=#6F0000;" parent="1" vertex="1">
          <mxGeometry x="470" y="955" width="10" height="10" as="geometry" />
        </mxCell>
        <mxCell id="rdkuFRtV2GZSyEBgy8UD-30" value="" style="endArrow=classic;html=1;rounded=0;strokeColor=#005700;strokeWidth=3;entryX=0.833;entryY=0.5;entryDx=0;entryDy=0;entryPerimeter=0;exitX=0.25;exitY=0;exitDx=0;exitDy=0;fillColor=#008a00;" parent="1" source="rdkuFRtV2GZSyEBgy8UD-26" target="rdkuFRtV2GZSyEBgy8UD-2" edge="1">
          <mxGeometry width="50" height="50" relative="1" as="geometry">
            <mxPoint x="490" y="880" as="sourcePoint" />
            <mxPoint x="540" y="830" as="targetPoint" />
          </mxGeometry>
        </mxCell>
        <mxCell id="rdkuFRtV2GZSyEBgy8UD-31" value="async&lt;br&gt;migrate" style="edgeLabel;html=1;align=center;verticalAlign=middle;resizable=0;points=[];" parent="rdkuFRtV2GZSyEBgy8UD-30" vertex="1" connectable="0">
          <mxGeometry x="0.1734" relative="1" as="geometry">
            <mxPoint x="-1" as="offset" />
          </mxGeometry>
        </mxCell>
        <mxCell id="rdkuFRtV2GZSyEBgy8UD-16" value="" style="endArrow=classic;html=1;rounded=0;fillColor=#a20025;strokeColor=#00FFFF;strokeWidth=3;" parent="1" source="rdkuFRtV2GZSyEBgy8UD-1" target="rdkuFRtV2GZSyEBgy8UD-6" edge="1">
          <mxGeometry width="50" height="50" relative="1" as="geometry">
            <mxPoint x="350" y="880" as="sourcePoint" />
            <mxPoint x="400" y="830" as="targetPoint" />
            <Array as="points">
              <mxPoint x="510" y="750" />
              <mxPoint x="510" y="950" />
            </Array>
          </mxGeometry>
        </mxCell>
      </root>
    </mxGraphModel>
  </diagram>
</mxfile>
